<svg viewBox="0.0 0.0 957.0 233.0" fill="none" stroke-linecap="square" stroke-miterlimit="10" xmlns="http://www.w3.org/2000/svg"><clipPath id="a"><path d="M0 0h957v233H0V0z"/></clipPath><g clip-path="url(#a)"><path d="M0 0h957.126v233.661H0z"/><path d="M-1.194 26.029h960v165.984h-960z"/><path fill="#000" d="M225.743 52.253q0 1.843-1.156 3-4.375 4.375-10.562 6.968-6.172 2.594-11.954 3.641-5.53 1.031-11 1.422-5.468.375-10.859.562-5.375.188-10.64.485-5.25.297-8.344.968-.5 8.375-3.11 18.297t-4.687 16q-.031 0 3.406.5 3.438.5 6.75.5 2.984 0 5.89-.28 2.907-.298 5.61-.985.313-.11 1.14-.36l1.61-.484q.781-.25 1.656-.563.875-.328 1.47-.328 1.843 0 3.312 1.72 1.468 1.702 1.468 3.187 0 2.25-1.89 3.39-5.11 3.219-11.485 4.688-6.36 1.453-12.156 1.453-2.297 0-4.297-.25-2-.25-3.953-.25-2.312 0-2.719.094-2.812 7.984-6.86 16.953-4.03 8.953-6.577 13.89-.016 0 4.156.641 4.172.64 8.172 1.328 4 .688 7.953 1.297 3.953.61 7.875.61 1.781 0 3.531-.11 1.75-.125 3.438-.469 5.562-1.125 9.578-4.031 4.016-2.906 8.234-6.89 1.25-1.25 2.844-1.25 1.844 0 3.313 1.468 1.468 1.469 1.468 3.188 0 1-.625 2.25-6.125 8.578-14.703 12.875-8.578 4.28-18.828 4.28-4.031 0-7.875-.452-3.844-.438-7.61-1.016-3.765-.562-7.421-1.047-3.64-.484-7.344-.484h-2.047q-1.031 0-.469-.063.266-.53-.671 1.328-.922 1.86-3.563 1.86-1.734 0-3.328-1.156-1.578-1.141-1.578-3.375 0-1.47-4.922 3.453 6.25-1.11 4.61-.703-1.641.422-3.11.937-1.453.531-3.078 1.219-1.61.687-4.11 1.625h-.859q-2.047 0-3.422-1.5-1.36-1.5-1.36-3.406 0-1.72 1.11-2.828 4.016-4.438 9.656-6.532 5.641-2.11 9.688-2.594 3-6.937 6.36-15.343 3.359-8.406 4.202-10.719 5.641-2.828 4.766-2.453t-1.766.828q-.875.438-1.921.875-1.032.422-1.688.422-2.047 0-3.547-1.61-1.484-1.625-1.484-3.421v-.25q0-2.782 1.172-2.782 1.062-2.062 4.437-4.28 3.375-2.22 5.453-2.907 2.797-8.39 5.172-18.266 2.375-9.89 4.078-14.781.5-.14-3.468 2.11-3.97 2.25-7 5.718-.797.813-1.407 1.89-.593 1.079-1.5 2.126-1.03 1.703-3.406 1.703-1.437 0-3.11-1.11-1.671-1.125-1.671-3.421 0-1.47.594-2.079 3.453-6.89 9.156-11.39 5.719-4.5 12.422-6.938 6.718-2.437 13.968-3.39 7.266-.969 14.141-1.36 11.094-.484 20.969-2.125 9.89-1.656 19.89-6.125.766-.375 1.766-.375 2.14 0 3.39 1.547 1.266 1.531 1.266 3.235zm24.625 53q0 1.187-.156 2.234-.14 1.031-.422 2.156-.75 3.016-3.953 3.016-1.094 0-3.062-.906-1.97-.922-1.97-3.266l.126-1.125q0-.531-.156-1.547-.157-1.031-.454-1.844-.296-.812-.484-1-.172-.187-.25-.187-2.328 0-5.328 1.61-3 1.609-5.219 3.234-.922.703-2.625 2.156-1.687 1.453-3.515 3.156-1.829 1.703-3.266 3.203-1.438 1.5-1.984 2.36-.25.343-.735 1.484-.484 1.125-1.047 2.625-.562 1.484-1.156 2.922-.578 1.437-.953 2.203-2.453 5.875-4.75 11.828-2.297 5.953-4.281 12.031-.97 2.813-1.782 5.875-.812 3.063-1.906 6.188-1.312 2.625-3.703 2.625-1.234 0-3.14-1.14-1.891-1.141-1.891-3.141 0-1.703.469-3.578.468-1.86.703-3.172 1.656-8.266 4.062-16.266 2.422-8 5.578-15.703 1.11-2.969 2.672-7.11 1.578-4.14 3.344-8.515 1.781-4.39 3.828-8.39 2.047-4.016 4.313-6.595 1.343-1.328 3.062-1.328 1.234 0 3.125 1.141 1.906 1.14 1.906 3.266 0 .718-.297 1.812-.28 1.078-.546 2.188-.25 1.093-.594 2.093-.328 1 2.234-6.687-2.64 1.984 2.11-.594 4.765-2.594 10.687-2.594 2.969 0 5.125 1.25 2.172 1.25 3.61 3.172 1.453 1.922 2.062 4.219.61 2.297.61 4.64zm28.625-43.125q0 1.515-.86 2.89l.25-.765q.11.312.11 2.484-1.5 1.063-2.11 2.188-.593 1.109-3.546 1.109-2.094 0-4.062-1.64-1.97-1.641-1.97-4.266 0-2.641.782-5.204.781-2.578 5.625-2.578 2.219 0 4 1.782 1.781 1.78 1.781 4zm-.875 79.75q0 1.718-1.062 2.78-2.266 2.75-4.5 5.626-2.235 2.86-4.875 5.422-2.625 2.562-5.969 4.437-3.328 1.875-8.437 2.875-5-2.219-6.61-5.36-1.61-3.14-1.61-7.28v-4.5q0-3.516.72-7.157.718-3.656 1.468-6.937 1.14-4.906 2.594-10.594 1.453-5.703 3.438-11.39 1.984-5.688 4.578-11.079 2.593-5.39 6.015-9.625 1.5-1.5 3.22-1.5 1.64 0 3.265 1.235 1.64 1.218 1.64 3.422v.671q-2.265 7.063-4.953 14.375-2.687 7.313-5.11 14.797-2.405 7.485-4.046 14.782-1.64 7.297-1.64 14 0 .687.015 1.265.031.563-1.406-.156 1.25-.234 3.984-2.36 2.75-2.124 5.36-4.671 2.624-2.563 5-5.078 2.374-2.532 4.265-2.532 1.656 0 3.156 1.375 1.5 1.36 1.5 3.157zm53.875 17.625q0 2.75-2.593 3.859-2.125.703-4.532 1.188-2.39.484-4.656.484-5.75 0-9.39-2.672-3.641-2.672-5.86-6.547-2.203-3.89-3.562-8.39-1.344-4.5-2.75-8.75-1.407-4.266-3.22-7.766-1.796-3.5-3.077-4.453l1.375-.86q-2.22 7.422-4.735 15.657-2.515 8.234-5.687 16.468-1 2.5-2.219 5.703-1.219 3.22-2.625 5.641-1 2.344-3.875 2.344-1.516 0-3.156-1.234-1.625-1.22-1.625-3.297 0-.453.219-1.328.218-.876.406-1.813.187-.922.344-1.61.156-.671.156-.921 2.969-13.047 6.984-25.219 4.016-12.172 7.89-24.516 6.75-21.906 13.891-43.562 1.25-3.625 2.438-7.25 1.187-3.625 2.437-7.266.47-1.406.922-3.078.453-1.672 1.22-3.531 1.53-2.438 3.874-2.438 1.516 0 3.14 1.235 1.641 1.218 1.641 3.297v.453q-4.468 17.75-9.422 34.718-4.937 16.954-7.578 25.75-3.218 2.657.266-.203 3.484-2.859 6.812-5.828 3.454-3.11 6.672-7.078 3.22-3.969 7.282-7.187l1.03-.516q.532-.266 1.407-.266 1.313 0 3.172 1.516 1.86 1.5 1.86 3.14 0 .657-.438 2.047-.438 1.391-.594 1.86-1.984 4.953-5.531 8.562-3.547 3.61-7.266 6.688-3.36 2.844-7.062 5.344-3.703 2.484-3.25 2.203-.657-.328 1.625 2.703 2.297 3.015 3.718 6.453 1.422 3.438 2.313 7.094.906 3.64 1.75 6.922.844 3.28 1.89 5.828 1.063 2.547 2.688 4.172 1.016 1 2.5 1.422 1.5.421 3.25.421 1.11 0 2.36-.25 1.25-.25 2.765-.25 1.86 0 3.125 1.782 1.281 1.765 1.281 3.125zm53.25-23.125q-3.61 7.328-7.265 12.734-3.64 5.406-9.5 10.5-3.485 3.172-8.016 3.172-2.64 0-5.062-1.516-2.407-1.515-3.313-4.234-.375-.953-.453-2.297-.078-1.344-.14-2.656-.063-1.328 0-2.547.062-1.219.062 5.422.047-.047-6.39 3.953-6.438 4-14.329 4-.844 0-1.734-.328-.89-.313-1.39-.485-3.86-1.859-5.642-5.547-1.765-3.687-1.765-7.296 0-4.47 1.125-8.813 1.14-4.36 3.047-8.36 1.922-4.015 4.39-7.656 2.47-3.656 5.172-6.859 6.953-8.64 16-15.031 9.047-6.406 19.078-10.078.5-.485 1.97-.485 2.265 0 3.327 1.532 1.078 1.53 1.078 3.125 0 2.875-2.39 3.89-2.094 1.125-4.14 2.063-2.048.922-3.938 1.984-13.407 7.719-22.563 19.781-1.812 2.422-3.75 5.438-1.937 3.016-3.484 6.172-1.532 3.156-2.516 6.36-.969 3.202-.969 6.062 0 .328.094 1.093.11.766.266 1.344.156.578.14.563-.015-.032-.53-.032 2.952 0 5.92-1.625 2.985-1.64 5.767-4.312 2.796-2.672 5.046-5.734 2.266-3.079 3.672-5.797 2.828-5.157 5.047-10.407t4.453-10.593q.875-2.22 2.094-5.282 1.219-3.078 2.422-5.375 1.281-2.25 3.953-2.25 1.813 0 3.297 1.188 1.484 1.187 1.484 3.969l-.265.515q-.938 4.25-2.22 8.89-1.265 4.626-2.796 9.095-.64 1.828-1.516 3.937-.875 2.11-1.328 3.469-.156.562-.218 1.344-.047.78-.188 1.812-.406 2.094-.86 4.078-.437 1.969-.937 4-.61 2.406-1.015 4.813-.407 2.39-.407 4.797v.968q0 .328-.453-1.5-1.969 0-1.187-.484.78-.5 1.906-1.453 1.125-.953 2.14-2.031 1.032-1.094 1.657-1.72 3.594-3.827 6.937-8.671.797-.922 1.485-2.11.687-1.187 1.578-2.203 1.031-1.703 3.281-1.703 1.969 0 3.375 1.407 1.406 1.406 1.406 4zm145.75-45q0 7.625-2.281 15.625-2.266 8-6.344 15.625-4.062 7.609-9.625 14.453-5.547 6.828-12.312 12.047-6.766 5.203-14.547 8.312-7.781 3.094-16.047 3.094-8.219 0-15.422-3.406-7.203-3.407-11.094-7.016-3.5 3.688-10.687 7.25-7.172 3.547-15.047 3.547-2.14 0-3.203-1.531-1.078-1.532-1.078-3 0-3.532 3.422-4.453 2.61-.532 4.765-.938 2.172-.406 4.375-1.406 5.282-2.406 9.438-6.735 4.172-4.343 7.469-9.75 3.296-5.422 5.75-11.484 2.468-6.078 4.578-11.672 1.843-4.906 3.328-9.937 1.5-5.032 3.14-10.141 1.641-5.11 3.547-10.156 1.922-5.047.25-1.875 4.313-2.469.703-.797-3.593 1.672-6.828 3.719-4.843 3.03-9.406 6.843-4.562 3.813-6.828 8.875-.5 1.078-.734 2.36-.22 1.265-.625 2.718-.375 1.516-1.657 2.313-1.265.797-2.53.797-2.517 0-3.595-1.531-1.062-1.532-1.062-3.375 0-5.61 2.344-10.438 2.359-4.844 6.14-8.828 3.781-4 8.453-7.36 4.672-3.359 9.594-6.109t9.672-4.969q4.75-2.218 8.594-3.828.03-.015.468-.312.454-.313 1.641-.313 1.703 0 3.234 1.266 1.547 1.25 1.547 3.39 0 .641-.656 2.25-.656 1.594-1.281 3.297-.625 1.704-1.281 3.204-.657 1.484-3.313 1.125 3.484-7.625 10.219-11.266 6.734-3.64 15.031-3.64h2.703q3.797.593 7.219 2.093t6.406 3.75q2.985 2.234 5.422 5.016 2.453 2.781 4.11 5.968 2.03 4.079 2.968 8.5.953 4.422.953 8.829zm-11.812 1.25q0-4.36-1.313-8.625-1.312-4.282-3.765-7.547-2.438-3.282-5.89-5.219-3.454-1.953-8-1.953-3.267 0-6.407 1.172-3.125 1.172-6.031 3.093-2.907 1.922-5.532 4.36-2.61 2.437-4.734 4.906-1.047 1.313-2.531 2.86-1.47 1.546-1.985 2.453-.172.437-.53 1.453-.36 1.015-.735 2.187-.36 1.172-.75 2.313-.375 1.14-.625 1.89-1.5 4.516-3.078 9.032-1.563 4.515-3.204 9.046-3.171 8.375-6.953 16.188-3.765 7.797-7.765 12.922 2.562 2.203 8 4.703 5.437 2.484 11.234 2.484 6.14 0 11.86-2.156 5.734-2.172 10.968-5.969 5.235-3.812 9.688-8.922 4.453-5.125 7.953-10.921 3.515-5.813 5.922-11.844 2.422-6.047 3.625-11.735.218-1.64.39-3.109.188-1.469.188-3.062zm62.937 17.625q0 5-1.11 10.859-1.093 5.86-3.296 11.703-2.203 5.828-5.406 11.375-3.203 5.531-7.406 9.938-4.204 4.406-9.5 7.093-5.297 2.688-11.438 2.688-4.984 0-8.547-2.61-3.562-2.593-5.875-6.359-2.312-3.766-3.406-8.062-1.078-4.297-1.078-8.125 0-4.5 1.234-8.875 3.672-12.063 11.813-21.516 8.14-9.453 19.765-14.156.719-.36 1.719-.36 2.266 0 3.328 1.532 1.078 1.53 1.078 3.125 0 2.343-2.297 3.78-1.828 1.048-3.484 1.938-1.656.891-3.266 2.157-6.53 4.75-11.171 11.765-4.625 7-7.032 14.797-.75 2.25-.75 5.063 0 2.297.657 4.953.671 2.656 1.937 4.812t3 3.438q1.734 1.265 4 1.265 1.469 0 2.906-.593 1.438-.594 2.813-1.547 4.36-3.11 7.89-8.172 3.547-5.078 6.063-11.016 2.531-5.937 3.844-12.11 1.328-6.187 1.328-11.655v-1.391q-.172-2.281-1.656-3.984-1.47-1.72-3.782-2.829-.703-.296-1.562-.546-.844-.266-1.688-.704-2.812-1.125-2.812-4.171 0-1.813 1.265-3.391 1.266-1.578 3.454-1.266h.062q3.219.282 6.281 1.438 3.063 1.14 5.532 3.172 2.468 2.031 4.171 4.843 1.704 2.813 2.141 6.282.281 1.406.281 2.734v2.688zm63 36.625q0 2.25-1.75 3.297-1.281 1.046-3.234 2.484-1.938 1.422-4.14 2.781-2.204 1.36-4.376 2.531-2.172 1.188-3.906 1.86-3.328 1.453-6.375 1.453-5.219 0-7.5-3.625-2.281-3.64-2.281-7.656 0-4.203 1.297-9.344 1.312-5.156 3.078-10.36 1.781-5.218 3.719-10.156 1.953-4.953 3.328-8.687 1.343-3.563 2.406-7.078 1.078-3.516 1.125-4 1.547-.172-2.031 1.906-3.578 2.078-7.703 4.969-4.11 2.89-7.86 5.765-3.75 2.875-5.375 4.016l-4.203 8.422q-2.984 5.828-5.656 11.593-2.656 5.766-5.125 11.704-1.11 2.797-2.125 5.703-1 2.89-2.25 5.797-1 2.656-3.844 2.656-1.406 0-3.094-1.313-1.687-1.297-1.687-3.093 0-.485.234-1.297.219-.828.406-1.688.172-.86.329-1.469.156-.625.156-.875 2.25-8.734 5.36-16.843 3.109-8.125 6.905-15.985 1.735-3.578 3.36-7.265 1.625-3.688 3.422-7.422.765-1.422 1.828-3.422 1.078-2.016 2.297-4.14 1.234-2.141 2.609-4.126 1.375-1.984 2.672-3.156 1.234-1.219 2.953-1.219 1.422 0 3.156 1.375 1.75 1.36 1.75 3.282 0 .78-.515 2.406-.516 1.61-1.157 3.219-.64 1.609-1.171 2.968-.532 1.344 1.593-7.109-4.422 4.156-1.515 1.703 2.922-2.453 6.28-4.578 3.376-2.125 7.095-3.563 3.734-1.453 7.234-1.453 2.844 0 5.11 2.266 2.265 2.266 2.64 4.813.281 1.437.281 2.328 0 2.468-.875 5.75-.875 3.28-1.64 5.5-1.282 3.671-3.672 9.64-2.375 5.953-4.735 12.156-2.343 6.188-4.03 11.704-1.673 5.515-1.673 8.375 0 1.03-.062.812-.063-.219-.469-.219 1.688 0 4.422-1.218 2.734-1.235 5.516-2.875 2.796-1.641 5.218-3.203 2.438-1.579 3.719-1.579 2.016 0 3.266 1.547 1.265 1.531 1.265 3.235zm50.5-36.625q0 5-1.11 10.859-1.093 5.86-3.296 11.703-2.203 5.828-5.406 11.375-3.203 5.531-7.406 9.938-4.204 4.406-9.5 7.093-5.297 2.688-11.438 2.688-4.984 0-8.547-2.61-3.562-2.593-5.875-6.359-2.312-3.766-3.406-8.062-1.078-4.297-1.078-8.125 0-4.5 1.234-8.875 3.672-12.063 11.813-21.516 8.14-9.453 19.765-14.156.719-.36 1.719-.36 2.266 0 3.328 1.532 1.078 1.53 1.078 3.125 0 2.343-2.297 3.78-1.828 1.048-3.484 1.938-1.656.891-3.266 2.157-6.53 4.75-11.171 11.765-4.625 7-7.032 14.797-.75 2.25-.75 5.063 0 2.297.657 4.953.671 2.656 1.937 4.812t3 3.438q1.734 1.265 4 1.265 1.469 0 2.906-.593 1.438-.594 2.813-1.547 4.36-3.11 7.89-8.172 3.547-5.078 6.063-11.016 2.531-5.937 3.844-12.11 1.328-6.187 1.328-11.655v-1.391q-.172-2.281-1.656-3.984-1.47-1.72-3.782-2.829-.703-.296-1.562-.546-.844-.266-1.688-.704-2.812-1.125-2.812-4.171 0-1.813 1.265-3.391 1.266-1.578 3.454-1.266h.062q3.219.282 6.281 1.438 3.063 1.14 5.532 3.172 2.468 2.031 4.171 4.843 1.704 2.813 2.141 6.282.281 1.406.281 2.734v2.688zm68-34.625q0 5.765-2.328 11.562-2.328 5.781-5.687 11.14-3.36 5.344-7.313 10.141-3.953 4.782-7.375 8.453-5.39 5.907-10.828 11.454-5.422 5.547-10.61 11.484-3.718 4.328-7.171 8.719-3.453 4.375-6.625 9.015-1.078 1.672-2.14 3.485-1.063 1.812-2.235 3.625-1.297 1.953-3.469 1.953-1.312 0-3.172-1.25-1.86-1.234-1.86-3.156 0-1.297.282-2.578.297-1.282.531-2.235 1.266-6.812 3.203-13.266 1.954-6.468 3.422-13.125 1.375-6.109 2.61-12.171 1.234-6.079 2.093-12.22.25-1.984.5-4.03.25-2.063.5-4.22.094-.624.016-1.593-.062-.969.297-2.187.312-1.594 1.656-2.5 1.36-.907 2.797-.907 1.438 0 2.781.907 1.36.906 1.703 2.64.313 1.813.235 3.61-.063 1.796-.063 3.25 0 9.968-1.531 19.421-1.516 9.454-6.25 18.329.453-4.953 3.313-8.125 2.859-3.188 5.765-6.22 2.906-3.015 6.781-6.827 3.875-3.813 7.954-8.14 4.093-4.345 8.078-8.938 4-4.61 7.062-9.235 3.063-4.64 4.844-8.969 1.797-4.328 1.797-8.171 0-4.235-2.469-7.532-1.812-2.468-4.64-4.156-2.813-1.687-5.876-2.984-.468-.188-1.453-.469-.968-.281-1.922-.844-2.265-1.422-2.265-3.765 0-1.516 1.219-3.141 1.234-1.64 3.937-1.64l.563.28q4.234 1.11 8.453 3.126 4.234 2.015 7.562 5.078 3.344 3.062 5.328 7.265 2 4.188 2 9.657zm39.25 60.75q-3.61 7.328-7.265 12.734-3.641 5.406-9.5 10.5-3.485 3.172-8.016 3.172-2.64 0-5.062-1.516-2.407-1.515-3.313-4.234-.375-.953-.453-2.297-.078-1.344-.14-2.656-.063-1.328 0-2.547.062-1.219.062 5.422.047-.047-6.39 3.953-6.438 4-14.329 4-.844 0-1.734-.328-.891-.313-1.391-.485-3.86-1.859-5.64-5.547-1.766-3.687-1.766-7.296 0-4.47 1.125-8.813 1.14-4.36 3.047-8.36 1.922-4.015 4.39-7.656 2.469-3.656 5.172-6.859 6.953-8.64 16-15.031 9.047-6.406 19.078-10.078.5-.485 1.969-.485 2.266 0 3.328 1.532 1.078 1.53 1.078 3.125 0 2.875-2.39 3.89-2.094 1.125-4.141 2.063-2.047.922-3.937 1.984-13.407 7.719-22.563 19.781-1.812 2.422-3.75 5.438-1.937 3.016-3.484 6.172-1.532 3.156-2.516 6.36-.969 3.202-.969 6.062 0 .328.094 1.093.11.766.266 1.344.156.578.14.563-.015-.032-.531-.032 2.953 0 5.922-1.625 2.984-1.64 5.766-4.312 2.796-2.672 5.046-5.734 2.266-3.079 3.672-5.797 2.828-5.157 5.047-10.407t4.453-10.593q.875-2.22 2.094-5.282 1.219-3.078 2.422-5.375 1.281-2.25 3.953-2.25 1.813 0 3.297 1.188 1.484 1.187 1.484 3.969l-.265.515q-.938 4.25-2.22 8.89-1.265 4.626-2.796 9.095-.64 1.828-1.516 3.937-.875 2.11-1.328 3.469-.156.562-.218 1.344-.047.78-.188 1.812-.406 2.094-.86 4.078-.437 1.969-.937 4-.61 2.406-1.015 4.813-.407 2.39-.407 4.797v.968q0 .328-.453-1.5-1.969 0-1.187-.484.78-.5 1.906-1.453 1.125-.953 2.14-2.031 1.032-1.094 1.657-1.72 3.594-3.827 6.937-8.671.797-.922 1.485-2.11.687-1.187 1.578-2.203 1.031-1.703 3.281-1.703 1.969 0 3.375 1.407 1.406 1.406 1.406 4zm60.5 10.5q0 2.25-1.75 3.297-1.281 1.046-3.234 2.484-1.938 1.422-4.14 2.781-2.204 1.36-4.376 2.531-2.172 1.188-3.906 1.86-3.328 1.453-6.375 1.453-5.219 0-7.5-3.625-2.281-3.64-2.281-7.656 0-4.203 1.297-9.344 1.312-5.156 3.078-10.36 1.781-5.218 3.719-10.156 1.953-4.953 3.328-8.687 1.343-3.563 2.406-7.078 1.078-3.516 1.125-4 1.547-.172-2.031 1.906-3.578 2.078-7.703 4.969-4.11 2.89-7.86 5.765-3.75 2.875-5.375 4.016l-4.203 8.422q-2.984 5.828-5.656 11.593-2.656 5.766-5.125 11.704-1.11 2.797-2.125 5.703-1 2.89-2.25 5.797-1 2.656-3.844 2.656-1.406 0-3.094-1.313-1.687-1.297-1.687-3.093 0-.485.234-1.297.219-.828.406-1.688.172-.86.329-1.469.156-.625.156-.875 2.25-8.734 5.36-16.843 3.109-8.125 6.905-15.985 1.735-3.578 3.36-7.265 1.625-3.688 3.422-7.422.765-1.422 1.828-3.422 1.078-2.016 2.297-4.14 1.234-2.141 2.609-4.126 1.375-1.984 2.672-3.156 1.234-1.219 2.953-1.219 1.422 0 3.156 1.375 1.75 1.36 1.75 3.282 0 .78-.515 2.406-.516 1.61-1.157 3.219-.64 1.609-1.171 2.968-.532 1.344 1.593-7.109-4.422 4.156-1.515 1.703 2.922-2.453 6.28-4.578 3.376-2.125 7.095-3.563 3.734-1.453 7.234-1.453 2.844 0 5.11 2.266 2.265 2.266 2.64 4.813.281 1.437.281 2.328 0 2.468-.875 5.75-.875 3.28-1.64 5.5-1.282 3.671-3.672 9.64-2.375 5.953-4.735 12.156-2.343 6.188-4.03 11.704-1.673 5.515-1.673 8.375 0 1.03-.062.812-.063-.219-.469-.219 1.688 0 4.422-1.218 2.734-1.235 5.516-2.875 2.796-1.641 5.218-3.203 2.438-1.579 3.719-1.579 2.016 0 3.266 1.547 1.265 1.531 1.265 3.235z"/><path fill="#20b3ab" d="M44.788 670.917H384.42v40.157H44.788z"/><path stroke="#000" stroke-width="2" stroke-linejoin="round" stroke-linecap="butt" d="M44.788 670.917H384.42v40.157H44.788z"/><path fill="#f7675c" d="M11.466 670.917h33.312v40.157H11.466z"/><path stroke="#000" stroke-width="2" stroke-linejoin="round" stroke-linecap="butt" d="M11.466 670.917h33.312v40.157H11.466z"/><path fill="#f7675c" d="M384.42 670.918l49.983 20.078-49.983 20.08z"/><path stroke="#000" stroke-width="2" stroke-linejoin="round" stroke-linecap="butt" d="M384.42 670.918l49.983 20.078-49.983 20.08z"/><path d="M72.142 196.551l815.716-1.102"/><path stroke="#20b3ab" stroke-width="4" stroke-linejoin="round" stroke-linecap="butt" stroke-dasharray="4.0,12.0" d="M72.142 196.551l815.716-1.102"/></g></svg>